<svg xmlns="http://www.w3.org/2000/svg" viewBox="0 0 520 220">
  <defs>
    <linearGradient id="greenGrad" x1="0%" y1="0%" x2="100%" y2="100%">
      <stop offset="0%" stop-color="#1f5318"/>
      <stop offset="100%" stop-color="#5cb650"/>
    </linearGradient>
    <linearGradient id="leafGrad" x1="0%" y1="0%" x2="100%" y2="100%">
      <stop offset="0%" stop-color="#2f7d2b"/>
      <stop offset="100%" stop-color="#9ddc6f"/>
    </linearGradient>
  </defs>
  <rect width="520" height="220" rx="30" fill="none" />
  <g transform="translate(40 40)">
    <path d="M45 0C34.3 18.1 15.6 37.6 15.6 61.5c0 39.9 30.6 70.2 68.4 70.2S152.4 101.4 152.4 61.5C152.4 37.1 132.2 18.1 120 0H45z" fill="url(#leafGrad)"/>
    <path d="M45 0C39.4 11.1 34.8 23.5 34.8 37.1c0 30.5 23.4 53.7 52.8 53.7S140.4 67.6 140.4 37.1C140.4 23.1 136.4 10.8 130 0H45z" fill="#fff" opacity="0.16"/>
    <path d="M35 75L40 140C40 140 43 160 63 160C82 160 88 152 92 141C96 130 102 110 102 110L98 58C85 60 63 69 35 75Z" fill="#2f7d2b"/>
    <path d="M110 105c18 0 32-15 32-33S128 39 110 39s-32 15-32 33 14 33 32 33Z" fill="#187a18"/>
  </g>
  <g transform="translate(220 58)">
    <text x="0" y="40" font-family="Poppins, sans-serif" font-size="72" font-weight="800" fill="url(#greenGrad)">AKHANDA</text>
    <text x="0" y="112" font-family="Poppins, sans-serif" font-size="54" font-weight="800" fill="#4b7d30">NURSERY</text>
  </g>
</svg>
